<?xml version="1.0" encoding="UTF-8"?>
<!-- Generator: Adobe Illustrator 15.0.0, SVG Export Plug-In . SVG Version: 6.00 Build 0)  -->
<!DOCTYPE svg PUBLIC "-//W3C//DTD SVG 1.1//EN" "http://www.w3.org/Graphics/SVG/1.1/DTD/svg11.dtd">
<svg version="1.1" id="Layer_1" xmlns="http://www.w3.org/2000/svg" xmlns:xlink="http://www.w3.org/1999/xlink" x="0px" y="0px" width="110.986px" height="92.988px" viewBox="0 0 110.986 92.988" enable-background="new 0 0 110.986 92.988" xml:space="preserve">
<g>
	<path fill="#FFFFFF" d="M38.144,76.465C17.111,76.465,0,59.354,0,38.321C0,17.289,17.111,0.176,38.144,0.176   c21.033,0,38.143,17.112,38.143,38.145C76.287,59.354,59.177,76.465,38.144,76.465z M38.144,6.884   c-17.335,0-31.437,14.102-31.437,31.437c0,17.333,14.102,31.436,31.437,31.436S69.58,55.654,69.58,38.321   C69.58,20.986,55.479,6.884,38.144,6.884z"/>
</g>
<g>
	<path fill="#8DC63F" d="M61.451,76.465c-15.372,0-27.879-12.508-27.879-27.882c0-15.373,12.508-27.88,27.879-27.88v6.707   c-11.674,0-21.173,9.498-21.173,21.173c0,11.678,9.499,21.174,21.173,21.174c10.535,0,19.299-7.731,20.91-17.819H60.879V45.23   h28.453v3.353C89.332,63.957,76.826,76.465,61.451,76.465z"/>
</g>
<path fill="#FFFFFF" stroke="#FFFFFF" stroke-width="0.5" stroke-miterlimit="10" d="M50.863,91.948l-0.751-6.325l-2.938,5.693  l-0.73-0.126l-1.131-7.893l0.901,0.151l0.875,6.33l2.915-5.678l0.765,0.129l0.755,6.307l2.883-5.681l0.867,0.149l-3.682,7.067  L50.863,91.948z"/>
<path fill="#FFFFFF" stroke="#FFFFFF" stroke-width="0.5" stroke-miterlimit="10" d="M57.198,88.675  c0.153,2.014,1.134,3.182,2.635,3.118c0.983-0.039,1.735-0.625,2.358-1.808l0.723,0.334c-0.802,1.484-1.724,2.159-3.083,2.219  c-2.001,0.083-3.397-1.516-3.5-3.981c-0.097-2.31,1.128-3.966,3.008-4.044c1.19-0.052,2.197,0.528,2.778,1.607  c0.355,0.643,0.52,1.293,0.614,2.324L57.198,88.675z M61.787,87.74c-0.206-1.613-1.092-2.543-2.398-2.489  c-1.311,0.057-2.116,1.039-2.204,2.682L61.787,87.74z"/>
<path fill="#FFFFFF" stroke="#FFFFFF" stroke-width="0.5" stroke-miterlimit="10" d="M65.789,85.322  c0.306-1.133,0.876-1.726,1.936-1.97c1.811-0.422,3.384,0.858,3.93,3.212c0.548,2.349-0.301,4.193-2.114,4.614  c-1.059,0.244-1.809-0.021-2.602-0.916l0.284,1.224l-0.79,0.184l-2.602-11.203l0.789-0.184L65.789,85.322z M66.433,85.189  c-0.332,0.697-0.35,1.395-0.069,2.604c0.283,1.208,0.602,1.825,1.21,2.305c0.498,0.396,1.077,0.527,1.717,0.379  c1.376-0.321,1.978-1.769,1.532-3.686c-0.461-1.981-1.622-3.02-3.017-2.695C67.169,84.242,66.724,84.611,66.433,85.189z"/>
<path fill="#FFFFFF" stroke="#FFFFFF" stroke-width="0.5" stroke-miterlimit="10" d="M80.58,80.19  c-0.604-0.577-1.259-0.6-2.233-0.079c-1.07,0.57-1.368,1.215-0.928,2.04c0.365,0.686,0.783,0.736,2.209,0.328  c1.141-0.315,1.388-0.366,1.813-0.378c0.687,0.003,1.34,0.42,1.695,1.09c0.649,1.22,0.061,2.607-1.419,3.397  c-1.311,0.698-2.454,0.602-3.575-0.326l0.602-0.635c0.832,0.753,1.637,0.833,2.642,0.294c1.096-0.581,1.46-1.441,0.998-2.311  c-0.211-0.396-0.514-0.627-0.865-0.671c-0.383-0.053-0.613-0.008-1.593,0.281c-1.902,0.543-2.707,0.386-3.268-0.665  c-0.635-1.188-0.139-2.313,1.399-3.134c1.325-0.706,2.262-0.64,3.165,0.212L80.58,80.19z"/>
<path fill="#FFFFFF" stroke="#FFFFFF" stroke-width="0.5" stroke-miterlimit="10" d="M89.283,76.621  c1.487,1.901,1.454,3.899-0.084,5.102c-1.563,1.223-3.497,0.767-5.02-1.177c-1.521-1.945-1.497-3.936,0.05-5.144  C85.808,74.168,87.729,74.636,89.283,76.621z M84.859,80.014c1.267,1.619,2.713,2.039,3.884,1.126  c1.143-0.896,1.093-2.414-0.142-3.991c-1.296-1.656-2.733-2.089-3.914-1.167C83.532,76.888,83.593,78.396,84.859,80.014z"/>
<path fill="#FFFFFF" stroke="#FFFFFF" stroke-width="0.5" stroke-miterlimit="10" d="M94.323,76.811l-0.567,0.578l-8.214-8.059  l0.567-0.579L94.323,76.811z"/>
<path fill="#FFFFFF" stroke="#FFFFFF" stroke-width="0.5" stroke-miterlimit="10" d="M91.158,69.029l3.572,2.686  c0.995,0.749,1.287,0.904,1.711,0.943c0.502,0.052,1.005-0.218,1.411-0.755c0.414-0.551,0.554-1.14,0.401-1.771  c-0.139-0.645-0.477-1.115-1.237-1.686l-3.463-2.605l0.488-0.646l6.07,4.563l-0.486,0.648l-0.868-0.655  c0.391,1.032,0.278,1.81-0.378,2.678c-0.538,0.719-1.257,1.105-1.954,1.08c-0.566-0.019-0.981-0.244-2.101-1.085l-3.654-2.749  L91.158,69.029z"/>
<path fill="#FFFFFF" stroke="#FFFFFF" stroke-width="0.5" stroke-miterlimit="10" d="M97.308,60.885l-0.849,1.56l4.417,2.413  c0.912,0.492,1.213,0.482,1.493-0.033c0.158-0.287,0.189-0.566,0.094-1.069l0.726,0.395c0.014,0.48-0.063,0.833-0.259,1.196  c-0.225,0.41-0.563,0.675-0.943,0.723c-0.366,0.056-0.648-0.037-1.391-0.442l-4.527-2.471l-0.783,1.438l-0.655-0.357l0.787-1.438  l-2.876-1.57l0.386-0.709l2.879,1.57l0.853-1.56L97.308,60.885z"/>
<path fill="#FFFFFF" stroke="#FFFFFF" stroke-width="0.5" stroke-miterlimit="10" d="M95.896,57.417l-0.323,0.744l-1.264-0.553  l0.321-0.741L95.896,57.417z M104.651,61.215l-0.324,0.742l-6.965-3.021l0.323-0.744L104.651,61.215z"/>
<path fill="#FFFFFF" stroke="#FFFFFF" stroke-width="0.5" stroke-miterlimit="10" d="M104.018,51.185  c2.322,0.663,3.47,2.304,2.936,4.177c-0.546,1.907-2.38,2.676-4.75,1.999c-2.374-0.678-3.528-2.3-2.986-4.192  C99.769,51.246,101.597,50.493,104.018,51.185z M102.439,56.53c1.974,0.564,3.392,0.052,3.8-1.372  c0.398-1.395-0.533-2.594-2.457-3.143c-2.023-0.578-3.44-0.084-3.852,1.358C99.527,54.783,100.466,55.968,102.439,56.53z"/>
<path fill="#FFFFFF" stroke="#FFFFFF" stroke-width="0.5" stroke-miterlimit="10" d="M108.654,43.94l-4.444-0.398  c-1.239-0.109-1.569-0.087-1.95,0.102c-0.449,0.221-0.737,0.713-0.799,1.383c-0.063,0.687,0.129,1.259,0.593,1.715  c0.46,0.475,0.991,0.695,1.938,0.78l4.31,0.384l-0.071,0.807l-7.557-0.674l0.072-0.807l1.014,0.09  c-0.832-0.766-1.119-1.45-1.031-2.43c0.081-0.91,0.57-1.713,1.238-2.016c0.507-0.25,0.908-0.267,2.314-0.142l4.447,0.397  L108.654,43.94z"/>
<path fill="#FFFFFF" stroke="#FFFFFF" stroke-width="0.5" stroke-miterlimit="10" d="M103.396,35.522  c-0.779,0.29-1.089,0.87-1.046,1.975c0.044,1.208,0.496,1.76,1.429,1.724c0.775-0.028,1.007-0.382,1.262-1.844  c0.214-1.163,0.275-1.407,0.451-1.796c0.301-0.615,0.962-1.021,1.722-1.049c1.378-0.051,2.372,1.086,2.434,2.76  c0.059,1.483-0.527,2.472-1.852,3.073l-0.308-0.817c1.038-0.419,1.463-1.109,1.416-2.249c-0.044-1.239-0.657-1.941-1.643-1.906  c-0.446,0.019-0.788,0.186-0.983,0.486c-0.213,0.32-0.275,0.546-0.439,1.554c-0.341,1.949-0.838,2.605-2.026,2.651  c-1.346,0.052-2.144-0.887-2.208-2.63c-0.057-1.5,0.411-2.311,1.572-2.754L103.396,35.522z"/>
<g>
	<path fill="#FFFFFF" d="M71.309,1.009h-2.09v5.856H68.09V1.009h-2.057V0.104h5.275V1.009z"/>
	<path fill="#FFFFFF" d="M75.59,5.305h0.028l1.955-5.201h1.439v6.762h-1.128V2.007l-0.028-0.004l-1.862,4.862h-0.775L73.324,1.91   l-0.028,0.009v4.946h-1.128V0.104h1.481L75.59,5.305z"/>
</g>
</svg>